# xmcd
#
# Track frame offsets: 
#        150
#        24096
#        42484
#        55927
#        67549
#        79952
#        91439
#        109518
#        140012
#        151638
#        170910
#        184857
#        201299
#        222008
#        237281
#
# Disc length: 3524 seconds
#
# Revision: 0
# Processed by: cddbd v1.5.2PL0 Copyright (c) Steve Scherf et al.
# Submitted via: ExactAudioCopy v0.99pb5
#
DISCID=c50dc20f
DTITLE=The Country Trail Band - He's got the road
DYEAR=1900
DGENRE=Country
TTITLE0=He's got the road
TTITLE1=Solid Ground
TTITLE2=Just a little talk with Jesus
TTITLE3=Good Loving
TTITLE4=Everybody wants to go to heaven
TTITLE5=He's always home
TTITLE6=He's the best
TTITLE7=Come on home again
TTITLE8=Power supply
TTITLE9=Without you (I haven't gat a prayer)
TTITLE10=Don't say
TTITLE11=He who made the rain
TTITLE12=A new star shinning
TTITLE13=Be good, be better
TTITLE14=Father of love
EXTD=
EXTT0=
EXTT1=
EXTT2=
EXTT3=
EXTT4=
EXTT5=
EXTT6=
EXTT7=
EXTT8=
EXTT9=
EXTT10=
EXTT11=
EXTT12=
EXTT13=
EXTT14=
PLAYORDER=
